<svg width="100%" viewBox="0 0 400 400" fill="none" xmlns="http://www.w3.org/2000/svg" id="icLoading">
<circle cx="199.5" cy="201.5" r="171.5" fill="#D00F40" stroke="black" stroke-width="10" />
<path d="M350 186.286V200.086C349.981 232.432 339.507 263.906 320.14 289.813C300.772 315.72 273.549 334.673 242.53 343.844C211.511 353.016 178.359 351.914 148.017 340.705C117.675 329.495 91.7698 308.777 74.1644 281.642C56.559 254.506 48.1969 222.407 50.3252 190.131C52.4534 157.854 64.9581 127.131 85.9742 102.542C106.99 77.9531 135.392 60.8166 166.943 53.688C198.494 46.5595 231.504 49.8209 261.05 62.9859" stroke="white" stroke-width="8" stroke-linecap="round" stroke-linejoin="round" class="loading-circle"/>
<g clip-path="url(#clip0_109_760)" class="loading-item-1">
<path d="M150.94 161.705H155.675L157.635 162.195L160.247 163.501L162.206 165.297L163.349 167.093L164.002 168.889L164.329 170.359V172.808L163.676 175.747L162.37 178.359L161.063 180.318L158.941 182.931L157.798 184.237H157.471V184.564L156.165 185.706L154.696 187.013L152.41 188.809L150.451 190.115L154.696 190.278L156.492 190.605L158.778 191.584L160.247 192.727L161.063 193.543L162.043 194.85L163.023 196.972L163.512 199.421L163.676 200.727V202.687L163.023 206.932L162.043 210.197L160.574 213.626L158.941 216.565L157.145 219.177L155.022 221.79L150.94 225.871L148.165 227.994L145.226 229.953L142.45 231.586L138.369 233.545L134.94 234.851L130.695 236.158L127.103 236.974L121.878 237.954L117.959 238.607L111.265 239.26H109.959V238.77L115.837 236.811L119.919 235.178L124.654 233.055L127.756 231.423L130.858 229.627L134.287 227.341L136.409 225.708L138.205 224.239L141.307 221.137L141.471 220.81H141.797L142.124 220.157L144.083 217.218L145.389 214.606L146.695 211.503L147.512 208.728L147.838 206.442V203.666L147.348 201.217L146.369 199.258L145.553 198.115L143.43 196.646L142.124 195.993L139.022 195.176L137.226 194.85L136.899 194.523V192.401L138.858 190.931L140.981 189.298H141.307L141.471 188.809L142.777 187.666L146.532 183.91L148.328 181.298L149.634 178.686L150.124 177.543L150.451 175.257V173.788L150.124 172.155L149.471 171.012L148.491 170.196L146.859 169.542L145.879 169.379H142.45L139.511 169.869L135.593 170.849L133.797 171.502H133.144L133.47 170.849L136.246 168.073L139.185 165.95L142.614 164.154L145.716 163.012L149.144 162.032L150.94 161.705Z" fill="#FCFAFA"/>
<path d="M151.267 160.236H155.839L157.961 160.726L159.921 161.542L161.717 162.685L164.002 164.808L165.309 166.44L166.778 169.053L167.268 170.522L167.594 173.134L167.431 175.584L166.941 177.543L166.288 179.339L165.309 181.135L163.349 183.91L161.88 185.706L161.064 186.686H160.737L160.41 187.339L158.614 188.972L158.451 189.625L160.41 190.768L162.37 192.564L164.002 194.197L165.635 196.972L166.615 199.911L166.778 201.707V205.462L166.451 207.585L165.798 210.524L164.655 213.953L162.696 218.034L160.9 220.81L159.431 222.769L157.472 225.055L155.676 227.014L154.043 228.484L150.777 231.096L149.145 232.239L146.696 233.709L143.757 235.341L141.634 236.321L138.532 237.627L133.144 239.423L128.572 240.566L124.001 241.382L119.266 242.035L114.204 242.525H110.939L109.959 241.872L108.327 240.076L108 239.423L108.163 238.443L109.306 237.464L112.572 236.484L115.837 235.341L119.103 234.035L122.368 232.566L125.144 231.259L128.899 229.137L132.164 227.014L134.777 225.055L136.409 223.749H136.736V223.422L138.042 222.279L140.328 219.994L140.981 219.014L141.961 217.708L143.267 215.585L144.736 212.483L145.879 209.054L146.206 207.422V202.687L145.716 201.217L144.736 200.074L143.43 199.421L139.185 198.278L137.389 197.625L135.756 195.993L135.266 194.85V192.237L136.246 191.094L138.369 189.462L141.144 187.176L145.063 183.257L146.859 180.808L148.165 178.359L148.655 176.726L148.818 175.91V173.461L148.655 172.971L148.165 172.808H143.757L141.144 173.298L136.409 174.604L134.94 175.094L133.96 174.93L131.511 172.481L131.348 171.502L131.838 170.522L133.144 168.889L134.45 167.583H134.777L134.94 167.093L136.899 165.624L139.185 164.154L142.94 162.359L146.369 161.216L149.798 160.399L151.267 160.236ZM150.94 161.705L147.185 162.522L143.43 163.828L140.001 165.461L138.205 166.604L135.92 168.4L133.144 171.175L133.144 171.502L134.45 171.338L136.246 170.685L140.165 169.706L142.45 169.379H145.879L147.838 169.869L149.145 170.685L149.961 171.665L150.288 172.645L150.451 173.788V175.257L150.124 177.543L148.818 180.482L147.675 182.278L146.206 184.237L141.797 188.645L141.308 188.972L141.307 189.298L140.491 189.625L138.695 191.094L136.899 192.401V194.523L137.226 194.85L140.491 195.503L142.45 196.156L144.246 197.136L145.553 198.115L147.022 200.401L147.675 202.523L147.838 203.666V206.442L147.349 209.381L146.206 212.81L144.736 216.075L143.267 218.524L141.797 220.483L141.797 220.81H141.471L140.328 222.116L137.716 224.729L135.593 226.361L133.144 228.157L130.042 230.117L125.307 232.729L122.205 234.198L117.96 235.994L113.061 237.79L109.959 238.77V239.26L113.225 239.097L118.939 238.443L123.021 237.79L127.103 236.974L131.348 235.994L137.226 234.035L140.491 232.566L144.246 230.606L148.165 227.994L150.288 226.361L152.247 224.565L155.512 221.3L157.635 218.524L159.594 215.422L161.064 212.646L162.533 208.728L163.186 206.115L163.676 202.687V200.727L163.186 197.462L162.37 195.503L161.39 193.87L160.737 193.054L158.778 191.584L156.492 190.605L154.696 190.278L150.451 190.115L153.063 188.319L155.186 186.523L156.492 185.38L157.471 184.564V184.237H157.798L158.941 182.931L160.737 180.808L162.37 178.359L163.676 175.747L164.329 172.808V170.359L163.676 167.91L162.696 165.95L161.227 164.318L159.431 163.012L157.145 162.032L155.675 161.705H150.94Z" fill="#111B23"/>
<path d="M150.94 161.705H155.675L157.635 162.195L160.247 163.501L162.206 165.297L163.349 167.093L164.002 168.889L164.329 170.359V172.808L163.676 175.747L162.37 178.359L161.063 180.318L158.941 182.931L157.798 184.237H157.471V184.564L156.165 185.706L154.696 187.013L152.41 188.809L150.451 190.115L154.696 190.278L156.492 190.605L158.778 191.584L160.247 192.727L161.063 193.543L162.043 194.85L163.023 196.972L163.512 199.421L163.676 200.727V202.687L163.023 206.932L162.043 210.197L160.574 213.626L158.941 216.565L157.145 219.177L155.022 221.79L150.94 225.871L148.165 227.994L145.226 229.953L142.45 231.586L138.369 233.545L134.94 234.851L130.695 236.158L127.103 236.974L121.878 237.954L117.959 238.607L111.265 239.26H109.959V238.77L112.408 237.954L113.061 238.117L111.592 238.607H112.898L120.898 236.974L125.96 235.668L131.348 233.872L136.899 231.586L139.348 230.606L142.124 229.137L142.94 228.321H143.267V227.994L144.083 227.341H144.41L144.736 226.688L146.532 225.218L148.491 223.259L149.961 221.463L151.43 219.83L152.9 217.708L154.206 215.585L155.675 212.81L157.145 209.054L157.961 206.115L158.288 204.156V200.074L157.798 198.115L156.982 196.482L155.839 195.176L153.553 193.707L151.104 192.89L148.328 192.401L144.083 192.074L144.736 191.421L146.532 189.951L148.655 188.155L149.961 187.013L152.083 185.053L153.553 183.584L155.022 181.788L156.492 179.829L158.124 177.053L158.941 174.767L159.104 173.951V170.522L158.451 168.563L157.471 167.093L156.492 165.95L154.206 164.644L152.9 164.154L151.92 163.991H147.675L144.899 164.318L142.94 164.808L141.471 165.134L138.205 167.093L136.083 168.726L133.797 171.012L134.613 170.849L137.715 169.869L141.634 169.053L142.94 168.889H145.063L147.022 169.216L148.655 169.869L148.818 170.196L147.348 169.706L145.879 169.379H142.45L139.511 169.869L135.593 170.849L133.797 171.502H133.144L133.47 170.849L136.246 168.073L139.185 165.95L142.614 164.154L145.716 163.012L149.144 162.032L150.94 161.705Z" fill="#A6AAAF"/>
<path d="M150.94 161.705H155.675L157.635 162.195L160.247 163.501L162.206 165.297L163.349 167.093L164.002 168.889L164.329 170.359V172.808L163.676 175.747L162.37 178.359L161.063 180.318L158.941 182.931L157.798 184.237H157.471V184.564L156.165 185.706L154.696 187.013L152.41 188.809L150.451 190.115L149.961 190.278L153.88 190.441L155.023 190.605L155.186 191.258L155.023 192.074L155.513 192.727L155.839 193.707L156.329 195.013L156.982 195.993L156.819 196.319L155.839 195.176L153.553 193.707L151.104 192.89L148.328 192.401L144.083 192.074L144.736 191.421L146.532 189.951L148.655 188.155L149.961 187.013L152.083 185.053L153.553 183.584L155.022 181.788L156.492 179.829L158.124 177.053L158.941 174.767L159.104 173.951V170.522L158.451 168.563L157.471 167.093L156.492 165.95L154.206 164.644L152.9 164.154L151.92 163.991H147.675L144.899 164.318L142.94 164.808L141.471 165.134L138.205 167.093L136.083 168.726L133.797 171.012L134.613 170.849L137.715 169.869L141.634 169.053L142.94 168.889H145.063L147.022 169.216L148.655 169.869L148.818 170.196L147.348 169.706L145.879 169.379H142.45L139.511 169.869L135.593 170.849L133.797 171.502H133.144L133.47 170.849L136.246 168.073L139.185 165.95L142.614 164.154L145.716 163.012L149.144 162.032L150.94 161.705Z" fill="#A6ABAF"/>
<path d="M154.696 214.769L154.859 215.259L154.696 215.749L155.022 215.912L154.859 217.871L154.696 219.667H154.369L154.206 220.647L154.859 221.136V221.953L150.94 225.871L148.165 227.994L145.226 229.953L142.45 231.586L138.369 233.545L134.94 234.851L130.695 236.158L127.103 236.974L121.878 237.954L117.959 238.607L111.265 239.26H109.959V238.77L112.408 237.954L113.061 238.117L111.592 238.607H112.898L120.898 236.974L125.96 235.668L131.348 233.872L136.899 231.586L139.348 230.606L142.124 229.137L142.94 228.321H143.267V227.994L144.083 227.341H144.41L144.736 226.688L146.532 225.218L148.491 223.259L149.961 221.463L151.43 219.83L152.9 217.708L154.206 215.585L154.696 214.769Z" fill="#B6B8BC"/>
<path d="M156.819 179.339L156.982 179.665L156.002 181.135L155.676 181.951H155.349L155.186 183.094L155.349 183.421L155.023 184.727L154.86 185.706L155.186 186.196L154.696 187.013L152.41 188.809L150.451 190.115L149.961 190.278L153.88 190.441L155.023 190.605L155.186 191.258L155.023 192.074L155.513 192.727L155.839 193.707L156.329 195.013L156.982 195.993L156.819 196.319L155.839 195.176L153.553 193.707L151.104 192.89L148.328 192.401L144.083 192.074L144.736 191.421L146.532 189.951L148.655 188.155L149.961 187.013L152.083 185.053L153.553 183.584L155.022 181.788L156.492 179.829L156.819 179.339Z" fill="#B6BABD"/>
<path d="M157.962 207.095L158.288 207.422L158.615 209.218L159.105 210.197V210.524H159.431L159.921 211.177L160.084 212.81L159.758 214.279H160.084L159.758 215.095L158.288 217.545L156.655 219.83L155.022 221.79L154.696 221.137L154.043 220.647L154.369 219.667H154.696L154.533 218.851L154.696 217.871L154.859 216.402L155.022 215.912L154.533 215.749L155.023 214.116L156.492 210.85L157.472 208.075H157.798L157.962 207.095Z" fill="#93999F"/>
<path d="M149.144 162.032L153.063 162.195L153.88 162.685V163.012H154.37L154.696 163.828H155.186V164.318L155.839 164.644L156.982 165.461L157.309 166.604L156.002 165.624L153.39 164.318L151.92 163.991H147.675L144.899 164.318L142.94 164.808L141.471 165.134L138.205 167.093L136.083 168.726L133.797 171.012L134.613 170.849L137.715 169.869L141.634 169.053L142.94 168.889H145.063L147.022 169.216L148.655 169.869L148.818 170.196L147.348 169.706L145.879 169.379H142.45L139.511 169.869L135.593 170.849L133.797 171.502H133.144L133.47 170.849L136.246 168.073L139.185 165.95L142.614 164.154L145.716 163.012L149.144 162.032Z" fill="#B3B2B3"/>
<path d="M158.288 177.216L158.614 177.543L159.431 179.176L159.757 179.339V179.829L160.084 179.992L159.92 181.788L158.124 183.747L157.798 184.237H157.471V184.564L156.165 185.706L155.186 186.523L154.859 185.87L154.696 185.217L154.859 184.4H155.186L155.022 183.91L155.186 183.257L155.022 182.604L155.349 181.951H155.676L155.839 181.135L156.818 179.665L157.308 178.522L157.798 177.706L158.288 177.216Z" fill="#93989E"/>
<path d="M154.696 214.769L154.859 215.259L154.696 215.749L155.022 215.912L154.859 217.871L154.696 219.667H154.369L154.206 220.647L154.859 221.136V221.953L150.94 225.871L149.961 226.524V226.035H150.288L150.451 224.728V223.912L150.778 223.259V221.626L151.431 220.157L152.247 219.177L152.574 218.198L154.206 215.585L154.696 214.769Z" fill="#A6AAAE"/>
<path d="M161.227 164.808L161.88 164.971L163.023 166.44L163.839 168.236L164.329 170.359V172.808L163.676 175.747L162.37 178.359L161.88 178.196L162.37 175.91V174.277L161.88 173.461L161.554 171.175V170.032L161.88 168.889V167.093L161.39 165.297L161.227 164.808Z" fill="#B5B5B7"/>
<path d="M133.961 233.219H135.43L135.757 234.035H136.736L136.41 234.361L131.348 235.994L127.103 236.974L121.878 237.954L117.959 238.607L116.164 238.607V238.443L118.613 238.117L120.082 237.627L121.552 237.3L124.817 236.321L126.287 235.831L131.675 234.198H132.001V233.872L133.961 233.219Z" fill="#95969A"/>
<path d="M150.94 161.705H155.675L157.635 162.195L160.247 163.501L160.411 163.828L159.268 163.665L159.104 165.134L158.778 165.787H158.451L158.125 166.604V167.093L157.472 166.767L156.982 165.95L156.819 165.461L155.186 164.318V163.828H154.696L154.37 163.012H153.88V162.685L153.063 162.358L149.961 162.195V161.869L150.94 161.705Z" fill="#95969A"/>
<path d="M149.961 190.115L154.696 190.278L156.492 190.605L158.778 191.584L159.431 192.237H158.778L158.941 193.217L158.615 195.176L158.288 196.319L158.125 197.789L157.308 196.972L156.492 195.503L155.839 194.36L155.676 193.707L155.023 192.237L154.859 191.911L155.023 190.605L149.635 190.441L149.961 190.115Z" fill="#94979C"/>
<path d="M161.554 195.013L162.207 195.176L163.023 196.972L163.512 199.421L163.676 200.727V202.687L163.023 206.932L162.86 207.585L162.37 207.748L162.207 206.279L161.88 203.013V197.952L161.717 196.809L161.554 196.156V195.339L161.227 195.176L161.554 195.013Z" fill="#B4B3B4"/>
<path d="M156.819 179.339L156.982 179.665L156.002 181.135L155.676 181.951H155.349L155.186 183.094L155.349 183.421L155.023 184.727L154.86 185.706L155.186 186.196L154.696 187.013L152.41 188.809L152.084 188.809V188.482H150.941V187.502L151.104 187.013V186.523H151.431L151.757 185.87L153.553 183.91L153.88 183.094L155.349 181.461L156.819 179.339Z" fill="#A6A9AD"/>
<path d="M149.308 190.278L153.88 190.441L155.023 190.605L155.186 191.258L155.023 192.074L155.513 192.727L155.839 193.707L156.329 195.013L156.982 195.993L156.819 196.319L155.839 195.176L153.553 193.707L153.553 193.38L151.92 192.89L151.431 192.401L151.594 192.074L151.104 191.911L150.777 191.094L150.614 190.605L149.798 190.768L149.145 190.441L149.308 190.278Z" fill="#A6ABB0"/>
<path d="M131.348 233.872L132.001 234.198L127.919 235.504L126.286 235.994L124.817 236.484L121.551 237.464L117.633 238.443L116.164 238.443L116.163 238.77L111.265 239.26H109.959V238.77L112.408 237.954L113.061 238.117L111.592 238.607H112.898L120.898 236.974L125.96 235.668L131.348 233.872Z" fill="#B1B5BA"/>
<path d="M128.736 235.341H129.552L129.389 235.668L128.899 235.994H130.695L130.042 236.321L127.103 236.974L121.878 237.954L117.959 238.607L116.164 238.607V238.443L118.613 238.117L120.082 237.627L121.552 237.3L124.817 236.321L128.736 235.341Z" fill="#BE754F"/>
<path d="M149.144 162.032L153.063 162.195L153.88 162.685V163.012H154.37L154.696 163.828H155.186V164.318L155.839 164.644L156.982 165.461L157.309 166.604L156.002 165.624L155.349 164.971L153.553 164.155L151.431 163.501L150.451 163.175L149.961 162.685H148.002L146.859 163.012L146.206 162.848L149.144 162.032Z" fill="#A6A9AC"/>
<path d="M121.225 237.137L121.878 237.301L121.062 237.627L118.939 238.117L117.633 238.443L116.164 238.443L116.163 238.77L111.265 239.26H109.959V238.77L112.408 237.954L113.061 238.117L111.592 238.607H112.898L116.163 237.954H117.633L121.225 237.137Z" fill="#AFA09A"/>
<path d="M133.961 233.219H135.43L135.757 234.035H136.736L136.41 234.361L134.94 234.851L133.634 234.851L132.981 234.198L132.001 234.035L132.491 233.708L133.961 233.219Z" fill="#A5A6A9"/>
<path d="M141.961 164.481L142.451 164.644L139.512 166.277L137.716 167.42L135.92 168.889L133.797 171.012V171.502H133.144L133.47 170.849L136.246 168.073L139.185 165.95L141.961 164.481Z" fill="#B2A19A"/>
<path d="M122.042 236.647H122.858L122.368 236.974L118.45 237.954L117.633 238.117H116.49L116.817 237.79L121.389 236.811L122.042 236.647Z" fill="#B2B6BA"/>
<path d="M112.408 237.954L113.061 238.117L111.592 238.607L112.408 238.77L112.082 239.096L111.265 239.26H109.959V238.77L112.408 237.954Z" fill="#B19D94"/>
<path d="M121.225 237.137L121.878 237.301L121.062 237.627L118.939 238.117L117.633 238.443L116.164 238.443L116.817 238.117L121.225 237.137Z" fill="#9299A0"/>
<path d="M124.491 235.994L125.47 236.158L124.817 236.484L122.531 237.137L121.878 236.974L122.858 236.811V236.484L124.491 235.994Z" fill="#A1A7AD"/>
<path d="M128.573 234.851L129.063 235.178L126.286 235.994L126.124 236.158H125.144L125.307 235.831L128.573 234.851Z" fill="#AEB2B7"/>
<path d="M135.43 168.889L135.757 169.053L133.797 171.012V171.502H133.144L133.47 170.849L135.43 168.889Z" fill="#C5C6C9"/>
<path d="M156.819 179.339L156.982 179.665L156.002 181.135L155.676 181.951L154.859 182.278L155.186 181.625L156.819 179.339Z" fill="#AEB3B7"/>
<path d="M152.247 218.687L152.41 219.177L151.268 220.647H150.941L151.268 219.994L152.247 218.687Z" fill="#B7BBBF"/>
<path d="M118.286 237.464L118.94 237.627L118.45 237.954L117.633 238.117H116.49L116.817 237.79L118.286 237.464Z" fill="#B3B7BB"/>
</g>
<g clip-path="url(#clip1_109_760)" class="loading-item-2">
<path d="M274.816 161.705H279.551L281.511 162.195L284.123 163.501L286.082 165.297L287.225 167.093L287.878 168.889L288.205 170.359V172.808L287.552 175.747L286.246 178.359L284.939 180.318L282.817 182.931L281.674 184.237H281.347V184.564L280.041 185.706L278.572 187.013L276.286 188.809L274.327 190.115L278.572 190.278L280.368 190.605L282.654 191.584L284.123 192.727L284.939 193.543L285.919 194.85L286.899 196.972L287.388 199.421L287.552 200.727V202.687L286.899 206.932L285.919 210.197L284.45 213.626L282.817 216.565L281.021 219.177L278.898 221.79L274.816 225.871L272.041 227.994L269.102 229.953L266.326 231.586L262.244 233.545L258.816 234.851L254.571 236.158L250.979 236.974L245.754 237.954L241.835 238.607L235.141 239.26H233.835V238.77L239.713 236.811L243.795 235.178L248.53 233.055L251.632 231.423L254.734 229.627L258.163 227.341L260.285 225.708L262.081 224.239L265.183 221.137L265.347 220.81H265.673L266 220.157L267.959 217.218L269.265 214.606L270.571 211.503L271.388 208.728L271.714 206.442V203.666L271.224 201.217L270.245 199.258L269.428 198.115L267.306 196.646L266 195.993L262.898 195.176L261.102 194.85L260.775 194.523V192.401L262.734 190.931L264.857 189.298H265.183L265.347 188.809L266.653 187.666L270.408 183.91L272.204 181.298L273.51 178.686L274 177.543L274.327 175.257V173.788L274 172.155L273.347 171.012L272.367 170.196L270.735 169.542L269.755 169.379H266.326L263.387 169.869L259.469 170.849L257.673 171.502H257.02L257.346 170.849L260.122 168.073L263.061 165.95L266.49 164.154L269.592 163.012L273.02 162.032L274.816 161.705Z" fill="#FCFAFA"/>
<path d="M275.143 160.236H279.715L281.837 160.726L283.797 161.542L285.593 162.685L287.878 164.808L289.185 166.44L290.654 169.053L291.144 170.522L291.47 173.134L291.307 175.584L290.817 177.543L290.164 179.339L289.185 181.135L287.225 183.91L285.756 185.706L284.939 186.686H284.613L284.286 187.339L282.49 188.972L282.327 189.625L284.286 190.768L286.246 192.564L287.878 194.197L289.511 196.972L290.491 199.911L290.654 201.707V205.462L290.327 207.585L289.674 210.524L288.531 213.953L286.572 218.034L284.776 220.81L283.307 222.769L281.347 225.055L279.551 227.014L277.919 228.484L274.653 231.096L273.021 232.239L270.572 233.709L267.633 235.341L265.51 236.321L262.408 237.627L257.02 239.423L252.448 240.566L247.877 241.382L243.142 242.035L238.08 242.525H234.815L233.835 241.872L232.203 240.076L231.876 239.423L232.039 238.443L233.182 237.464L236.448 236.484L239.713 235.341L242.978 234.035L246.244 232.566L249.02 231.259L252.775 229.137L256.04 227.014L258.653 225.055L260.285 223.749H260.612V223.422L261.918 222.279L264.204 219.994L264.857 219.014L265.837 217.708L267.143 215.585L268.612 212.483L269.755 209.054L270.082 207.422V202.687L269.592 201.217L268.612 200.074L267.306 199.421L263.061 198.278L261.265 197.625L259.632 195.993L259.142 194.85V192.237L260.122 191.094L262.245 189.462L265.02 187.176L268.939 183.257L270.735 180.808L272.041 178.359L272.531 176.726L272.694 175.91V173.461L272.531 172.971L272.041 172.808H267.633L265.02 173.298L260.285 174.604L258.816 175.094L257.836 174.93L255.387 172.481L255.224 171.502L255.714 170.522L257.02 168.889L258.326 167.583H258.653L258.816 167.093L260.775 165.624L263.061 164.154L266.816 162.359L270.245 161.216L273.674 160.399L275.143 160.236ZM274.816 161.705L271.061 162.522L267.306 163.828L263.877 165.461L262.081 166.604L259.796 168.4L257.02 171.175L257.02 171.502L258.326 171.338L260.122 170.685L264.041 169.706L266.326 169.379H269.755L271.714 169.869L273.021 170.685L273.837 171.665L274.164 172.645L274.327 173.788V175.257L274 177.543L272.694 180.482L271.551 182.278L270.082 184.237L265.673 188.645L265.184 188.972L265.183 189.298L264.367 189.625L262.571 191.094L260.775 192.401V194.523L261.102 194.85L264.367 195.503L266.326 196.156L268.122 197.136L269.428 198.115L270.898 200.401L271.551 202.523L271.714 203.666V206.442L271.225 209.381L270.082 212.81L268.612 216.075L267.143 218.524L265.673 220.483L265.673 220.81H265.347L264.204 222.116L261.592 224.729L259.469 226.361L257.02 228.157L253.918 230.117L249.183 232.729L246.081 234.198L241.836 235.994L236.937 237.79L233.835 238.77V239.26L237.101 239.097L242.815 238.443L246.897 237.79L250.979 236.974L255.224 235.994L261.102 234.035L264.367 232.566L268.122 230.606L272.041 227.994L274.164 226.361L276.123 224.565L279.388 221.3L281.511 218.524L283.47 215.422L284.939 212.646L286.409 208.728L287.062 206.115L287.552 202.687V200.727L287.062 197.462L286.246 195.503L285.266 193.87L284.613 193.054L282.654 191.584L280.368 190.605L278.572 190.278L274.327 190.115L276.939 188.319L279.062 186.523L280.368 185.38L281.347 184.564V184.237H281.674L282.817 182.931L284.613 180.808L286.246 178.359L287.552 175.747L288.205 172.808V170.359L287.552 167.91L286.572 165.95L285.103 164.318L283.307 163.012L281.021 162.032L279.551 161.705H274.816Z" fill="#111B23"/>
<path d="M274.816 161.705H279.551L281.511 162.195L284.123 163.501L286.082 165.297L287.225 167.093L287.878 168.889L288.205 170.359V172.808L287.552 175.747L286.246 178.359L284.939 180.318L282.817 182.931L281.674 184.237H281.347V184.564L280.041 185.706L278.572 187.013L276.286 188.809L274.327 190.115L278.572 190.278L280.368 190.605L282.654 191.584L284.123 192.727L284.939 193.543L285.919 194.85L286.899 196.972L287.388 199.421L287.552 200.727V202.687L286.899 206.932L285.919 210.197L284.45 213.626L282.817 216.565L281.021 219.177L278.898 221.79L274.816 225.871L272.041 227.994L269.102 229.953L266.326 231.586L262.244 233.545L258.816 234.851L254.571 236.158L250.979 236.974L245.754 237.954L241.835 238.607L235.141 239.26H233.835V238.77L236.284 237.954L236.937 238.117L235.468 238.607H236.774L244.774 236.974L249.836 235.668L255.224 233.872L260.775 231.586L263.224 230.606L266 229.137L266.816 228.321H267.143V227.994L267.959 227.341H268.286L268.612 226.688L270.408 225.218L272.367 223.259L273.837 221.463L275.306 219.83L276.776 217.708L278.082 215.585L279.551 212.81L281.021 209.054L281.837 206.115L282.164 204.156V200.074L281.674 198.115L280.858 196.482L279.715 195.176L277.429 193.707L274.98 192.89L272.204 192.401L267.959 192.074L268.612 191.421L270.408 189.951L272.531 188.155L273.837 187.013L275.959 185.053L277.429 183.584L278.898 181.788L280.368 179.829L282 177.053L282.817 174.767L282.98 173.951V170.522L282.327 168.563L281.347 167.093L280.368 165.95L278.082 164.644L276.776 164.154L275.796 163.991H271.551L268.775 164.318L266.816 164.808L265.347 165.134L262.081 167.093L259.959 168.726L257.673 171.012L258.489 170.849L261.591 169.869L265.51 169.053L266.816 168.889H268.939L270.898 169.216L272.531 169.869L272.694 170.196L271.224 169.706L269.755 169.379H266.326L263.387 169.869L259.469 170.849L257.673 171.502H257.02L257.346 170.849L260.122 168.073L263.061 165.95L266.49 164.154L269.592 163.012L273.02 162.032L274.816 161.705Z" fill="#A6AAAF"/>
<path d="M274.816 161.705H279.551L281.511 162.195L284.123 163.501L286.082 165.297L287.225 167.093L287.878 168.889L288.205 170.359V172.808L287.552 175.747L286.246 178.359L284.939 180.318L282.817 182.931L281.674 184.237H281.347V184.564L280.041 185.706L278.572 187.013L276.286 188.809L274.327 190.115L273.837 190.278L277.756 190.441L278.899 190.605L279.062 191.258L278.899 192.074L279.388 192.727L279.715 193.707L280.205 195.013L280.858 195.993L280.695 196.319L279.715 195.176L277.429 193.707L274.98 192.89L272.204 192.401L267.959 192.074L268.612 191.421L270.408 189.951L272.531 188.155L273.837 187.013L275.959 185.053L277.429 183.584L278.898 181.788L280.368 179.829L282 177.053L282.817 174.767L282.98 173.951V170.522L282.327 168.563L281.347 167.093L280.368 165.95L278.082 164.644L276.776 164.154L275.796 163.991H271.551L268.775 164.318L266.816 164.808L265.347 165.134L262.081 167.093L259.959 168.726L257.673 171.012L258.489 170.849L261.591 169.869L265.51 169.053L266.816 168.889H268.939L270.898 169.216L272.531 169.869L272.694 170.196L271.224 169.706L269.755 169.379H266.326L263.387 169.869L259.469 170.849L257.673 171.502H257.02L257.346 170.849L260.122 168.073L263.061 165.95L266.49 164.154L269.592 163.012L273.02 162.032L274.816 161.705Z" fill="#A6ABAF"/>
<path d="M278.572 214.769L278.735 215.259L278.572 215.749L278.898 215.912L278.735 217.871L278.572 219.667H278.245L278.082 220.647L278.735 221.136V221.953L274.816 225.871L272.041 227.994L269.102 229.953L266.326 231.586L262.244 233.545L258.816 234.851L254.571 236.158L250.979 236.974L245.754 237.954L241.835 238.607L235.141 239.26H233.835V238.77L236.284 237.954L236.937 238.117L235.468 238.607H236.774L244.774 236.974L249.836 235.668L255.224 233.872L260.775 231.586L263.224 230.606L266 229.137L266.816 228.321H267.143V227.994L267.959 227.341H268.286L268.612 226.688L270.408 225.218L272.367 223.259L273.837 221.463L275.306 219.83L276.776 217.708L278.082 215.585L278.572 214.769Z" fill="#B6B8BC"/>
<path d="M280.695 179.339L280.858 179.665L279.878 181.135L279.552 181.951H279.225L279.062 183.094L279.225 183.421L278.899 184.727L278.735 185.706L279.062 186.196L278.572 187.013L276.286 188.809L274.327 190.115L273.837 190.278L277.756 190.441L278.899 190.605L279.062 191.258L278.899 192.074L279.388 192.727L279.715 193.707L280.205 195.013L280.858 195.993L280.695 196.319L279.715 195.176L277.429 193.707L274.98 192.89L272.204 192.401L267.959 192.074L268.612 191.421L270.408 189.951L272.531 188.155L273.837 187.013L275.959 185.053L277.429 183.584L278.898 181.788L280.368 179.829L280.695 179.339Z" fill="#B6BABD"/>
<path d="M281.838 207.095L282.164 207.422L282.491 209.218L282.981 210.197V210.524H283.307L283.797 211.177L283.96 212.81L283.634 214.279H283.96L283.634 215.095L282.164 217.545L280.531 219.83L278.898 221.79L278.572 221.137L277.919 220.647L278.245 219.667H278.572L278.409 218.851L278.572 217.871L278.735 216.402L278.898 215.912L278.409 215.749L278.899 214.116L280.368 210.85L281.348 208.075H281.674L281.838 207.095Z" fill="#93999F"/>
<path d="M273.02 162.032L276.939 162.195L277.756 162.685V163.012H278.246L278.572 163.828H279.062V164.318L279.715 164.644L280.858 165.461L281.184 166.604L279.878 165.624L277.266 164.318L275.796 163.991H271.551L268.775 164.318L266.816 164.808L265.347 165.134L262.081 167.093L259.959 168.726L257.673 171.012L258.489 170.849L261.591 169.869L265.51 169.053L266.816 168.889H268.939L270.898 169.216L272.531 169.869L272.694 170.196L271.224 169.706L269.755 169.379H266.326L263.387 169.869L259.469 170.849L257.673 171.502H257.02L257.346 170.849L260.122 168.073L263.061 165.95L266.49 164.154L269.592 163.012L273.02 162.032Z" fill="#B3B2B3"/>
<path d="M282.164 177.216L282.49 177.543L283.307 179.176L283.633 179.339V179.829L283.96 179.992L283.796 181.788L282 183.747L281.674 184.237H281.347V184.564L280.041 185.706L279.062 186.523L278.735 185.87L278.572 185.217L278.735 184.4H279.062L278.898 183.91L279.062 183.257L278.898 182.604L279.225 181.951H279.552L279.715 181.135L280.694 179.665L281.184 178.522L281.674 177.706L282.164 177.216Z" fill="#93989E"/>
<path d="M278.572 214.769L278.735 215.259L278.572 215.749L278.898 215.912L278.735 217.871L278.572 219.667H278.245L278.082 220.647L278.735 221.136V221.953L274.816 225.871L273.837 226.524V226.035H274.164L274.327 224.728V223.912L274.654 223.259V221.626L275.307 220.157L276.123 219.177L276.45 218.198L278.082 215.585L278.572 214.769Z" fill="#A6AAAE"/>
<path d="M285.103 164.808L285.756 164.971L286.899 166.44L287.715 168.236L288.205 170.359V172.808L287.552 175.747L286.246 178.359L285.756 178.196L286.246 175.91V174.277L285.756 173.461L285.43 171.175V170.032L285.756 168.889V167.093L285.266 165.297L285.103 164.808Z" fill="#B5B5B7"/>
<path d="M257.837 233.219H259.306L259.633 234.035H260.612L260.286 234.361L255.224 235.994L250.979 236.974L245.754 237.954L241.835 238.607L240.04 238.607V238.443L242.489 238.117L243.958 237.627L245.428 237.3L248.693 236.321L250.163 235.831L255.551 234.198H255.877V233.872L257.837 233.219Z" fill="#95969A"/>
<path d="M274.816 161.705H279.551L281.511 162.195L284.123 163.501L284.287 163.828L283.144 163.665L282.98 165.134L282.654 165.787H282.327L282.001 166.604V167.093L281.348 166.767L280.858 165.95L280.695 165.461L279.062 164.318V163.828H278.572L278.246 163.012H277.756V162.685L276.939 162.358L273.837 162.195V161.869L274.816 161.705Z" fill="#95969A"/>
<path d="M273.837 190.115L278.572 190.278L280.368 190.605L282.654 191.584L283.307 192.237H282.654L282.817 193.217L282.491 195.176L282.164 196.319L282.001 197.789L281.184 196.972L280.368 195.503L279.715 194.36L279.552 193.707L278.899 192.237L278.735 191.911L278.899 190.605L273.511 190.441L273.837 190.115Z" fill="#94979C"/>
<path d="M285.43 195.013L286.083 195.176L286.899 196.972L287.388 199.421L287.552 200.727V202.687L286.899 206.932L286.736 207.585L286.246 207.748L286.083 206.279L285.756 203.013V197.952L285.593 196.809L285.43 196.156V195.339L285.103 195.176L285.43 195.013Z" fill="#B4B3B4"/>
<path d="M280.695 179.339L280.858 179.665L279.878 181.135L279.552 181.951H279.225L279.062 183.094L279.225 183.421L278.899 184.727L278.735 185.706L279.062 186.196L278.572 187.013L276.286 188.809L275.96 188.809V188.482H274.817V187.502L274.98 187.013V186.523H275.307L275.633 185.87L277.429 183.91L277.756 183.094L279.225 181.461L280.695 179.339Z" fill="#A6A9AD"/>
<path d="M273.184 190.278L277.756 190.441L278.899 190.605L279.062 191.258L278.899 192.074L279.388 192.727L279.715 193.707L280.205 195.013L280.858 195.993L280.695 196.319L279.715 195.176L277.429 193.707L277.429 193.38L275.796 192.89L275.307 192.401L275.47 192.074L274.98 191.911L274.653 191.094L274.49 190.605L273.674 190.768L273.021 190.441L273.184 190.278Z" fill="#A6ABB0"/>
<path d="M255.224 233.872L255.877 234.198L251.795 235.504L250.162 235.994L248.693 236.484L245.427 237.464L241.509 238.443L240.04 238.443L240.039 238.77L235.141 239.26H233.835V238.77L236.284 237.954L236.937 238.117L235.468 238.607H236.774L244.774 236.974L249.836 235.668L255.224 233.872Z" fill="#B1B5BA"/>
<path d="M252.612 235.341H253.428L253.265 235.668L252.775 235.994H254.571L253.918 236.321L250.979 236.974L245.754 237.954L241.835 238.607L240.04 238.607V238.443L242.489 238.117L243.958 237.627L245.428 237.3L248.693 236.321L252.612 235.341Z" fill="#BE754F"/>
<path d="M273.02 162.032L276.939 162.195L277.756 162.685V163.012H278.246L278.572 163.828H279.062V164.318L279.715 164.644L280.858 165.461L281.184 166.604L279.878 165.624L279.225 164.971L277.429 164.155L275.307 163.501L274.327 163.175L273.837 162.685H271.878L270.735 163.012L270.082 162.848L273.02 162.032Z" fill="#A6A9AC"/>
<path d="M245.101 237.137L245.754 237.301L244.938 237.627L242.815 238.117L241.509 238.443L240.04 238.443L240.039 238.77L235.141 239.26H233.835V238.77L236.284 237.954L236.937 238.117L235.468 238.607H236.774L240.039 237.954H241.509L245.101 237.137Z" fill="#AFA09A"/>
<path d="M257.837 233.219H259.306L259.633 234.035H260.612L260.286 234.361L258.816 234.851L257.51 234.851L256.857 234.198L255.877 234.035L256.367 233.708L257.837 233.219Z" fill="#A5A6A9"/>
<path d="M265.837 164.481L266.327 164.644L263.388 166.277L261.592 167.42L259.796 168.889L257.673 171.012V171.502H257.02L257.346 170.849L260.122 168.073L263.061 165.95L265.837 164.481Z" fill="#B2A19A"/>
<path d="M245.918 236.647H246.734L246.244 236.974L242.326 237.954L241.509 238.117H240.366L240.693 237.79L245.265 236.811L245.918 236.647Z" fill="#B2B6BA"/>
<path d="M236.284 237.954L236.937 238.117L235.468 238.607L236.284 238.77L235.958 239.096L235.141 239.26H233.835V238.77L236.284 237.954Z" fill="#B19D94"/>
<path d="M245.101 237.137L245.754 237.301L244.938 237.627L242.815 238.117L241.509 238.443L240.04 238.443L240.693 238.117L245.101 237.137Z" fill="#9299A0"/>
<path d="M248.367 235.994L249.346 236.158L248.693 236.484L246.407 237.137L245.754 236.974L246.734 236.811V236.484L248.367 235.994Z" fill="#A1A7AD"/>
<path d="M252.449 234.851L252.939 235.178L250.162 235.994L250 236.158H249.02L249.183 235.831L252.449 234.851Z" fill="#AEB2B7"/>
<path d="M259.306 168.889L259.633 169.053L257.673 171.012V171.502H257.02L257.346 170.849L259.306 168.889Z" fill="#C5C6C9"/>
<path d="M280.695 179.339L280.858 179.665L279.878 181.135L279.552 181.951L278.735 182.278L279.062 181.625L280.695 179.339Z" fill="#AEB3B7"/>
<path d="M276.123 218.687L276.286 219.177L275.144 220.647H274.817L275.144 219.994L276.123 218.687Z" fill="#B7BBBF"/>
<path d="M242.162 237.464L242.816 237.627L242.326 237.954L241.509 238.117H240.366L240.693 237.79L242.162 237.464Z" fill="#B3B7BB"/>
</g>
<g clip-path="url(#clip2_109_760)" class="loading-item-3">
<path d="M212.595 141.429H219.154L222.555 142.158L225.956 143.859L228.386 145.802L230.329 148.232L231.544 150.904L232.273 153.09L232.516 156.977L232.03 160.378L230.572 164.508L228.143 168.395L224.984 172.282L223.284 174.226L219.883 177.627L217.211 179.813L213.566 182.486L211.38 183.7H216.482L220.612 184.429L223.77 185.644L226.199 187.344L228.143 189.288L230.086 192.932L231.301 197.548V204.107L230.086 210.181L228.386 215.282L225.713 220.87L222.798 225.486L220.126 228.887L217.939 231.316L215.267 234.231L212.352 236.904L208.708 239.819L203.606 243.22L197.533 246.621L191.459 249.293L184.9 251.48L179.312 252.937L170.81 254.638L163.036 255.853L156.233 256.581L154.533 256.824H151.375L152.103 256.096L154.533 255.124L161.092 252.937L165.951 250.994L172.996 247.836L178.098 245.163L184.657 241.276L188.058 238.847L190.73 236.904L193.646 234.231L195.103 232.774H195.589L196.075 231.802L199.233 228.644L201.177 225.728L203.12 222.57L205.064 218.44L206.521 214.31L207.493 210.666L207.979 208.237V203.378L206.764 199.491L205.307 196.819L203.849 195.361V194.876L202.634 194.39L200.205 192.932L197.533 191.96L195.103 191.231L192.188 190.989L191.702 190.503V187.344L194.132 185.158L197.047 182.972L199.962 180.299L201.905 178.599L204.578 175.926L206.764 173.254L208.465 170.825L209.922 168.395L211.137 164.994L211.866 162.079V158.921L210.651 155.763L208.708 154.062L207.007 153.333L205.792 153.09H198.261L192.431 154.305L186.358 156.249H185.872L186.115 155.277L187.815 153.576H188.301L188.787 152.604L191.216 150.418L195.103 147.746L198.99 145.559L204.578 143.373L210.894 141.672L212.595 141.429Z" fill="#FBFAFA"/>
<path d="M215.267 139L219.154 139.243L223.527 140.215L227.657 142.158L230.329 144.345L232.515 146.531L235.188 150.661L236.402 153.576L237.374 157.463V160.378L236.402 164.994L234.459 169.367L232.758 172.039L230.572 174.955L227.657 178.356L223.77 182.243V182.972L226.928 184.915L229.357 187.101L232.029 189.774L234.216 193.661L235.431 197.062L236.159 200.949V205.565L235.188 211.638L233.487 217.712L231.544 222.084L229.357 226.214L225.956 231.316L224.255 233.259L222.312 235.689L219.397 238.847L216.724 241.033L213.566 243.706L209.679 246.378L205.792 248.807L200.205 251.723L194.617 254.152L185.871 257.067L179.069 258.768L172.996 259.983L165.951 260.954L155.019 261.926L152.589 261.683L149.431 258.525L148.702 257.31V255.61L149.674 254.638L152.589 253.423L157.934 251.723L162.55 250.022L167.408 248.079L174.696 244.435L178.34 242.491L182.713 239.819L186.843 236.904L190.244 234.231L192.674 232.045L196.804 227.915L199.476 224.271L201.905 219.898L203.606 216.011L205.063 211.395L205.792 208.237V203.135L204.578 199.977L203.606 198.762L201.905 197.791L198.504 196.576L193.645 195.604L191.459 194.147L190.001 192.446L189.516 191.717L189.273 187.83L189.758 185.887L192.431 183.7L195.832 181.028L198.747 178.356L204.335 172.768L206.521 169.61L208.465 165.723L209.679 161.593V159.407L209.193 158.435L207.007 157.706H203.606L197.532 158.678L190.244 160.864L189.516 161.107H187.329L185.629 159.65L183.928 157.706L183.685 157.463V155.034L184.657 153.576L187.329 150.661L189.273 148.96L191.459 147.26L194.617 145.316L198.261 143.373L202.391 141.672L208.465 139.972L212.595 139.243L215.267 139ZM212.595 141.429L208.95 142.158L203.849 143.616L198.018 146.045L193.888 148.475L190.73 150.904L188.301 153.09L188.301 153.576L187.329 154.062L185.871 155.52L185.872 156.249L187.815 155.763L193.403 154.062L198.261 153.09H205.792L208.222 153.819L210.165 155.277L211.137 156.734L211.866 158.921V162.079L210.651 166.695L208.95 170.096L206.035 174.226L202.391 178.113L200.448 180.056L198.504 181.757L195.589 184.186L192.674 186.373L191.702 187.344V190.503L192.188 190.989L195.103 191.231L199.719 192.689L202.391 194.147L203.363 194.875L203.849 194.876L204.335 195.847L205.792 197.548L207.007 199.977L207.979 203.378V208.237L206.764 213.582L205.549 217.226L203.363 222.084L201.419 225.485L199.476 228.158L197.775 230.101L195.589 232.288L195.589 232.774L194.617 233.259L191.702 236.175L188.787 238.361L185.386 240.791L180.527 243.706L176.397 246.135L169.352 249.536L163.035 252.209L156.233 254.638L152.589 255.853L151.374 256.581L151.375 256.824H154.533L160.363 256.096L164.979 255.61L173.239 254.152L180.527 252.694L188.058 250.508L193.16 248.564L198.99 245.892L204.821 242.491L208.95 239.576L212.352 236.904L214.295 234.96L216.239 233.259L219.64 229.615L223.284 224.757L226.199 219.898L228.386 215.282L230.086 210.181L231.301 204.107V197.548L230.086 192.932L228.143 189.288L225.713 186.859L223.284 185.401L219.64 184.186L216.482 183.7H211.38L214.295 182L217.453 179.57L220.854 176.655L224.741 172.768L227.414 169.367L229.843 165.723L231.058 163.294L232.272 159.407L232.515 155.034L232.029 152.362L230.815 149.203L229.357 147.017L227.657 145.073L224.255 142.887L220.854 141.672L219.154 141.429H212.595Z" fill="#111B23"/>
<path d="M212.595 141.429H219.154L222.555 142.158L225.956 143.859L228.386 145.802L230.329 148.232L231.544 150.904L232.273 153.09L232.516 156.977L232.03 160.378L230.572 164.508L228.143 168.395L224.984 172.282L223.284 174.226L219.883 177.627L217.211 179.813L213.566 182.486L211.38 183.7H216.482L220.612 184.429L223.77 185.644L226.199 187.344L228.143 189.288L230.086 192.932L231.301 197.548V204.107L230.086 210.181L228.386 215.282L225.713 220.87L222.798 225.486L220.126 228.887L217.939 231.316L215.267 234.231L212.352 236.904L208.708 239.819L203.606 243.22L197.533 246.621L191.459 249.293L184.9 251.48L179.312 252.937L170.81 254.638L163.036 255.853L156.233 256.581L154.533 256.824H151.375L152.103 256.096L154.533 255.124L156.233 254.881L155.748 255.367L153.561 256.096L156.719 255.853L164.25 254.395L171.538 252.694L177.369 250.994L183.685 248.807L192.431 245.163L198.019 242.734L199.233 241.762H199.962L200.448 240.791L202.391 239.09L204.821 236.904H205.307V236.418L207.25 234.717L210.165 231.559L212.352 228.887L214.052 226.7L216.482 223.056L218.911 218.683L220.126 216.011L221.826 211.395L222.798 207.994L223.284 205.322L223.527 202.649V200.463L223.041 197.062L221.583 193.661L219.397 191.231L216.968 189.531L214.052 188.316L208.951 187.344L202.391 186.859V186.373L204.335 184.915L207.736 182L210.408 179.813L214.295 176.169L215.996 174.469L218.182 171.797L220.126 169.367L222.069 166.209L223.77 162.808L224.499 159.893V154.791L223.527 151.633L221.583 148.718L218.668 146.531L215.51 145.316L213.081 144.831H209.194L205.064 145.316L202.877 145.802L200.205 146.045H199.233L197.776 146.774L197.29 146.531L200.691 144.831L205.55 143.13L210.894 141.672L212.595 141.429Z" fill="#A6AAAF"/>
<path d="M212.595 141.429H219.154L222.555 142.158L225.956 143.859L228.386 145.802L230.329 148.232L231.544 150.904L232.273 153.09L232.516 156.977L232.03 160.378L230.572 164.508L228.143 168.395L224.984 172.282L223.284 174.226L219.883 177.627L217.211 179.813L213.566 182.486L211.38 183.7L210.894 183.7V184.186H217.211L219.154 184.672L218.668 184.915L218.425 186.859H218.911L220.126 190.26L220.369 191.231L221.098 192.203L220.855 192.689L218.911 190.746L216.239 189.288L214.052 188.316L208.951 187.344L202.391 186.859V186.373L204.335 184.915L207.736 182L210.408 179.813L214.295 176.169L215.996 174.469L218.182 171.797L220.126 169.367L222.069 166.209L223.77 162.808L224.499 159.893V154.791L223.527 151.633L221.583 148.718L218.668 146.531L215.51 145.316L213.081 144.831H209.194L205.064 145.316L202.877 145.802L200.205 146.045H199.233L197.776 146.774L197.29 146.531L200.691 144.831L205.55 143.13L210.894 141.672L212.595 141.429Z" fill="#A6ABAF"/>
<path d="M218.182 220.141L218.425 220.87L218.182 222.084L218.668 222.57L218.425 224.514V226.943L218.182 228.644L219.154 229.13L218.911 230.344L215.024 234.474L212.595 236.661L209.679 239.09L205.55 242.005L201.42 244.435L197.047 246.864L190.73 249.536L184.9 251.48L179.312 252.937L170.81 254.638L163.036 255.853L156.233 256.581L154.533 256.824H151.375L152.103 256.096L154.533 255.124L156.233 254.881L155.748 255.367L153.561 256.096L156.719 255.853L164.25 254.395L171.538 252.694L177.369 250.994L183.685 248.807L192.431 245.163L198.019 242.734L199.233 241.762H199.962L200.448 240.791L202.391 239.09L204.821 236.904H205.307V236.418L207.25 234.717L210.165 231.559L212.352 228.887L214.052 226.7L216.482 223.056L218.182 220.141Z" fill="#B6B8BB"/>
<path d="M220.126 169.367L220.369 169.853L219.154 172.039L218.668 175.683L218.425 175.926V177.627L218.668 178.113L217.939 178.599L217.211 179.813L213.566 182.486L211.38 183.7L210.894 183.7V184.186H217.211L219.154 184.672L218.668 184.915L218.425 186.859H218.911L220.126 190.26L220.369 191.231L221.098 192.203L220.855 192.689L218.911 190.746L216.239 189.288L214.052 188.316L208.951 187.344L202.391 186.859V186.373L204.335 184.915L207.736 182L210.408 179.813L214.295 176.169L215.996 174.469L218.182 171.797L220.126 169.367Z" fill="#B6BABE"/>
<path d="M223.041 208.48L223.527 208.723L223.77 210.909L224.256 212.853L224.985 214.553L225.956 215.768V218.683L225.471 220.141L225.956 220.384L223.284 224.757L220.126 228.887L219.154 229.858L218.911 229.13L217.94 228.644L218.183 225.485V223.299L218.425 222.57L217.94 222.084L218.668 219.169L220.126 216.011L221.826 211.395L222.069 210.666H222.555L223.041 208.48Z" fill="#93999F"/>
<path d="M223.284 164.751L224.013 165.723L224.742 166.938L225.956 168.152L226.199 169.853L225.956 170.339L226.442 170.582L223.77 173.74L219.883 177.627L217.94 179.085V178.356L218.425 177.87L218.183 177.627V175.926L218.425 175.683L218.911 172.039L220.126 169.853L220.855 168.152L222.555 165.48L223.284 164.751Z" fill="#94989D"/>
<path d="M218.182 220.141L218.425 220.87L218.182 222.084L218.668 222.57L218.425 224.514V226.943L218.182 228.644L219.154 229.13L218.911 230.344L215.024 234.474L213.324 235.689L213.081 234.96L212.352 234.474V233.016L211.866 232.045L212.109 231.316H212.595L212.352 230.344L213.566 227.915L214.781 226.214L215.51 224.514L217.453 221.356L218.182 220.141Z" fill="#A6A9AE"/>
<path d="M227.9 146.288H228.871L230.572 148.718L231.787 151.633L232.273 153.09L232.516 156.977L232.03 160.378L230.572 164.508L230.086 164.751L229.6 164.023L229.114 159.65L228.386 158.192L228.143 156.977V153.819L228.629 150.661L227.9 146.288Z" fill="#B5B6B8"/>
<path d="M210.894 183.7L216.482 183.7L220.612 184.429L223.77 185.644L225.956 187.101L225.47 187.344L224.255 186.616L224.498 188.316L223.769 191.231L223.041 193.418V195.118L222.312 194.39L221.097 192.932L220.125 191.231L219.64 189.531L218.911 187.587L218.911 186.859H218.425L218.668 184.672L217.21 184.429L210.894 184.186V183.7Z" fill="#95969A"/>
<path d="M212.595 141.429H219.154L222.555 142.158L225.956 143.859L226.199 144.345L224.741 144.102V144.588H224.255L224.013 146.774L222.798 149.203L222.069 148.96V148.232H221.583L220.126 146.531V146.045L219.154 145.802L218.911 145.073L218.182 144.831L216.239 142.401L215.753 142.158H209.922L210.894 141.672L212.595 141.429Z" fill="#959699"/>
<path d="M227.9 190.017L228.871 190.503L230.329 193.661L231.301 197.548V204.107L230.086 210.181L229.6 211.395L228.871 211.638L229.114 207.994L228.871 205.565V200.706L228.629 195.847L228.143 192.932L227.9 190.746V190.017Z" fill="#B4B4B6"/>
<path d="M220.126 169.367L220.369 169.853L219.154 172.039L218.668 175.683L218.425 175.926V177.627L218.668 178.113L217.939 178.599L217.211 179.813L214.295 182L213.81 182V181.514H213.081L212.595 180.299L213.081 179.327L212.838 178.599L214.538 176.412L215.996 174.955L216.482 173.74L218.668 171.311L220.126 169.367Z" fill="#A6A9AE"/>
<path d="M212.109 184.186L217.211 184.186L219.154 184.672L218.668 184.915L218.425 186.859H218.911L220.126 190.26L220.369 191.231L221.098 192.203L220.855 192.689L218.911 190.746L216.239 189.288L215.024 188.316L213.567 187.83L213.324 186.616L213.567 186.13L213.081 185.887L212.838 184.672L212.109 184.186Z" fill="#A6ABB0"/>
<path d="M207.979 142.401H209.68L211.137 142.887V143.373L213.567 144.102L216.725 145.073L218.182 145.802L217.454 146.045L215.51 145.316L213.081 144.831H209.194L205.064 145.316L202.877 145.802L200.205 146.045H199.233L197.776 146.774L197.29 146.531L200.691 144.831L205.55 143.13L207.979 142.401Z" fill="#B4B6B9"/>
<path d="M220.126 169.367L220.369 169.853L219.64 171.068L217.94 172.525L218.425 171.553L220.126 169.367Z" fill="#AFB3B8"/>
</g>
<defs>
<clipPath id="clip0_109_760">
<rect width="59.5944" height="82.2893" fill="white" transform="translate(108 160.236)"/>
</clipPath>
<clipPath id="clip1_109_760">
<rect width="59.5944" height="82.2893" fill="white" transform="translate(231.876 160.236)"/>
</clipPath>
<clipPath id="clip2_109_760">
<rect width="88.6719" height="122.926" fill="white" transform="translate(148.702 139)"/>
</clipPath>
</defs>
<style>
    #icLoading .loading-circle {
        animation: rotate 1200ms infinite ease-in-out;
        transform-origin: center;
    }
    #icLoading .loading-item-1 {
        animation: loading 2s cubic-bezier(0.64, 0.57, 0.67, 1.53) infinite;
    }
    #icLoading .loading-item-2 {
        animation: loading 2s cubic-bezier(0.64, 0.57, 0.67, 1.53) infinite;
        animation-delay: 300ms;
    }
    #icLoading .loading-item-3 {
        animation: loading 2s cubic-bezier(0.64, 0.57, 0.67, 1.53) infinite;
        animation-delay: 150ms;
    }
    @keyframes loading {
        0% {
            transform: translateY(2rem);
            opacity: 0;
        }
        30%, 70% {
            transform: translateY(0px);
            opacity: 1;
        }
        100% {
            transform: translateY(2rem);
            opacity: 0;
        }
    }
    @keyframes rotate {
        0% {transform: rotate(0deg);}
        100% {transform: rotate(360deg);}
    }
</style>
</svg>

