<svg width="100%" viewBox="0 0 934 247" fill="none" xmlns="http://www.w3.org/2000/svg">
<path d="M61.2453 246.736C48.9796 246.736 39.2596 243.149 32.0853 235.974C24.9111 228.569 21.3239 218.964 21.3239 207.161V157.52H56.0382V210.286C56.0382 213.757 57.7739 215.493 61.2453 215.493C64.7168 215.493 66.4525 213.757 66.4525 210.286V142.593C66.4525 139.353 64.8325 137.733 61.5925 137.733H44.5825V104.407H61.5925C64.8325 104.407 66.4525 102.787 66.4525 99.5471V36.7143C66.4525 33.2429 64.7168 31.5072 61.2453 31.5072C57.7739 31.5072 56.0382 33.2429 56.0382 36.7143V89.48H21.3239V39.8386C21.3239 28.0357 24.9111 18.5472 32.0853 11.3729C39.2596 3.96715 48.9796 0.264295 61.2453 0.264295C73.2796 0.264295 82.8839 3.96715 90.0582 11.3729C97.4639 18.5472 101.167 28.0357 101.167 39.8386V100.241C101.167 106.259 99.6625 110.887 96.6539 114.127C93.6453 117.136 90.5211 119.219 87.2811 120.376V121.764C90.5211 122.921 93.6453 125.12 96.6539 128.36C99.6625 131.369 101.167 135.881 101.167 141.899V207.161C101.167 218.964 97.4639 228.569 90.0582 235.974C82.8839 243.149 73.2796 246.736 61.2453 246.736ZM154.472 246.736C142.206 246.736 132.486 243.149 125.312 235.974C118.138 228.569 114.551 218.964 114.551 207.161V157.52H149.265V210.286C149.265 213.757 151.001 215.493 154.472 215.493C157.944 215.493 159.679 213.757 159.679 210.286V142.593C159.679 139.353 158.059 137.733 154.819 137.733H137.809V104.407H154.819C158.059 104.407 159.679 102.787 159.679 99.5471V36.7143C159.679 33.2429 157.944 31.5072 154.472 31.5072C151.001 31.5072 149.265 33.2429 149.265 36.7143V89.48H114.551V39.8386C114.551 28.0357 118.138 18.5472 125.312 11.3729C132.486 3.96715 142.206 0.264295 154.472 0.264295C166.506 0.264295 176.111 3.96715 183.285 11.3729C190.691 18.5472 194.394 28.0357 194.394 39.8386V100.241C194.394 106.259 192.889 110.887 189.881 114.127C186.872 117.136 183.748 119.219 180.508 120.376V121.764C183.748 122.921 186.872 125.12 189.881 128.36C192.889 131.369 194.394 135.881 194.394 141.899V207.161C194.394 218.964 190.691 228.569 183.285 235.974C176.111 243.149 166.506 246.736 154.472 246.736ZM247.699 246.736C235.433 246.736 225.713 243.149 218.539 235.974C211.365 228.569 207.778 218.964 207.778 207.161V157.52H242.492V210.286C242.492 213.757 244.228 215.493 247.699 215.493C251.17 215.493 252.906 213.757 252.906 210.286V142.593C252.906 139.353 251.286 137.733 248.046 137.733H231.036V104.407H248.046C251.286 104.407 252.906 102.787 252.906 99.5471V36.7143C252.906 33.2429 251.17 31.5072 247.699 31.5072C244.228 31.5072 242.492 33.2429 242.492 36.7143V89.48H207.778V39.8386C207.778 28.0357 211.365 18.5472 218.539 11.3729C225.713 3.96715 235.433 0.264295 247.699 0.264295C259.733 0.264295 269.338 3.96715 276.512 11.3729C283.918 18.5472 287.62 28.0357 287.62 39.8386V100.241C287.62 106.259 286.116 110.887 283.108 114.127C280.099 117.136 276.975 119.219 273.735 120.376V121.764C276.975 122.921 280.099 125.12 283.108 128.36C286.116 131.369 287.62 135.881 287.62 141.899V207.161C287.62 218.964 283.918 228.569 276.512 235.974C269.338 243.149 259.733 246.736 247.699 246.736ZM340.717 2.00001H390.358C399.384 2.00001 406.674 4.77715 412.228 10.3314C417.783 15.8857 420.56 23.1757 420.56 32.2014V110.656C420.56 119.681 417.783 126.971 412.228 132.526C406.674 138.08 399.384 140.857 390.358 140.857H375.431V245H340.717V2.00001ZM380.986 109.614C384.226 109.614 385.846 107.994 385.846 104.754V38.1029C385.846 34.8629 384.226 33.2429 380.986 33.2429H375.431V109.614H380.986ZM434.961 2.00001H469.675V245H434.961V2.00001ZM487.168 2.00001H521.882V212.716H549.654V245H487.168V2.00001ZM598.232 246.736C585.966 246.736 576.13 243.149 568.725 235.974C561.55 228.569 557.963 218.964 557.963 207.161V158.561H592.678V210.286C592.678 213.757 594.413 215.493 597.885 215.493C601.356 215.493 603.092 213.757 603.092 210.286V169.67C603.092 164.116 601.472 158.909 598.232 154.049L571.849 114.821C569.072 110.656 566.758 106.953 564.906 103.713C563.055 100.473 561.55 97.3486 560.393 94.34C559.468 91.1 558.773 87.7443 558.31 84.2729C558.079 80.8014 557.963 76.8672 557.963 72.47V39.8386C557.963 28.0357 561.55 18.5472 568.725 11.3729C575.899 3.96715 585.619 0.264295 597.885 0.264295C609.919 0.264295 619.523 3.96715 626.698 11.3729C634.103 18.5472 637.806 28.0357 637.806 39.8386V88.4386H603.092V36.7143C603.092 33.2429 601.356 31.5072 597.885 31.5072C594.413 31.5072 592.678 33.2429 592.678 36.7143V77.33C592.678 82.8843 594.298 88.0914 597.538 92.9514L623.92 132.179C626.698 136.344 629.012 140.047 630.863 143.287C632.715 146.527 634.103 149.767 635.029 153.007C636.186 156.016 636.88 159.256 637.112 162.727C637.575 165.967 637.806 169.901 637.806 174.53V207.161C637.806 218.964 634.219 228.569 627.045 235.974C619.87 243.149 610.266 246.736 598.232 246.736ZM652.603 2.00001H686.276L705.716 124.541L707.799 124.194L705.022 74.9L703.98 2.00001H738.695V245H705.022L685.582 118.987L683.499 119.334L686.276 168.629L687.317 245H652.603V2.00001ZM756 2.00001H818.486V34.2843H790.715V97.8114H815.362V131.831H790.715V212.716H818.486V245H756V2.00001ZM832.616 2.00001H882.257C891.283 2.00001 898.573 4.77715 904.127 10.3314C909.681 15.8857 912.459 23.1757 912.459 32.2014V102.671C912.459 107.3 910.839 111.466 907.599 115.169C904.59 118.871 900.771 121.301 896.143 122.459V124.194C903.086 126.509 906.904 131.831 907.599 140.163L918.36 245H884.34L874.273 144.676C873.81 140.973 872.19 139.121 869.413 139.121H867.33V245H832.616V2.00001ZM872.884 107.879C876.124 107.879 877.744 106.259 877.744 103.019V38.1029C877.744 34.8629 876.124 33.2429 872.884 33.2429H867.33V107.879H872.884Z" fill="url(#paint0_linear_78_238)"/>
<defs>
<linearGradient id="paint0_linear_78_238" x1="466.963" y1="2" x2="466.963" y2="245" gradientUnits="userSpaceOnUse">
<stop stop-color="#D0CFFF"/>
<stop offset="1" stop-color="white" stop-opacity="0"/>
</linearGradient>
</defs>
</svg>
